<mxfile host="65bd71144e">
    <diagram id="MKOGhEaWKZBCcf9f1QEL" name="Page-1">
        <mxGraphModel dx="1422" dy="766" grid="1" gridSize="10" guides="1" tooltips="1" connect="1" arrows="1" fold="1" page="1" pageScale="1" pageWidth="827" pageHeight="1169" math="1" shadow="0">
            <root>
                <mxCell id="0"/>
                <mxCell id="1" parent="0"/>
                <!-- Title -->
                <mxCell id="2" value="多変量正規分布 (Multivariate Normal Distribution)" style="text;html=1;strokeColor=none;fillColor=none;align=center;verticalAlign=middle;whiteSpace=wrap;rounded=0;fontSize=16;fontStyle=1;" vertex="1" parent="1">
                    <mxGeometry x="263.5" y="40" width="300" height="30" as="geometry"/>
                </mxCell>
                
                <!-- 3D Surface -->
                <mxCell id="3" value="" style="ellipse;whiteSpace=wrap;html=1;aspect=fixed;fillColor=#d5e8d4;strokeColor=#82b366;opacity=60;" vertex="1" parent="1">
                    <mxGeometry x="150" y="120" width="200" height="120" as="geometry"/>
                </mxCell>
                
                <!-- Inner ellipse for contour -->
                <mxCell id="4" value="" style="ellipse;whiteSpace=wrap;html=1;aspect=fixed;fillColor=#fff2cc;strokeColor=#d6b656;opacity=60;" vertex="1" parent="1">
                    <mxGeometry x="185" y="135" width="130" height="90" as="geometry"/>
                </mxCell>
                
                <!-- Center ellipse -->
                <mxCell id="5" value="" style="ellipse;whiteSpace=wrap;html=1;aspect=fixed;fillColor=#f8cecc;strokeColor=#b85450;opacity=80;" vertex="1" parent="1">
                    <mxGeometry x="215" y="150" width="70" height="60" as="geometry"/>
                </mxCell>
                
                <!-- Axes -->
                <!-- X-axis -->
                <mxCell id="6" value="" style="endArrow=classic;html=1;rounded=0;strokeWidth=2;" edge="1" parent="1">
                    <mxGeometry width="50" height="50" relative="1" as="geometry">
                        <mxPoint x="100" y="350" as="sourcePoint"/>
                        <mxPoint x="400" y="350" as="targetPoint"/>
                    </mxGeometry>
                </mxCell>
                
                <!-- Y-axis -->
                <mxCell id="7" value="" style="endArrow=classic;html=1;rounded=0;strokeWidth=2;" edge="1" parent="1">
                    <mxGeometry width="50" height="50" relative="1" as="geometry">
                        <mxPoint x="100" y="350" as="sourcePoint"/>
                        <mxPoint x="100" y="100" as="targetPoint"/>
                    </mxGeometry>
                </mxCell>
                
                <!-- Axis labels -->
                <mxCell id="8" value="X₁" style="text;html=1;strokeColor=none;fillColor=none;align=center;verticalAlign=middle;whiteSpace=wrap;rounded=0;fontSize=14;" vertex="1" parent="1">
                    <mxGeometry x="390" y="355" width="30" height="20" as="geometry"/>
                </mxCell>
                
                <mxCell id="9" value="X₂" style="text;html=1;strokeColor=none;fillColor=none;align=center;verticalAlign=middle;whiteSpace=wrap;rounded=0;fontSize=14;" vertex="1" parent="1">
                    <mxGeometry x="75" y="85" width="30" height="20" as="geometry"/>
                </mxCell>
                
                <!-- Mean vector -->
                <mxCell id="10" value="μ" style="text;html=1;strokeColor=none;fillColor=none;align=center;verticalAlign=middle;whiteSpace=wrap;rounded=0;fontSize=16;fontStyle=1;fontColor=#d6b656;" vertex="1" parent="1">
                    <mxGeometry x="240" y="170" width="20" height="20" as="geometry"/>
                </mxCell>
                
                <!-- Contour lines label -->
                <mxCell id="11" value="等高線 (Contour Lines)" style="text;html=1;strokeColor=none;fillColor=none;align=center;verticalAlign=middle;whiteSpace=wrap;rounded=0;fontSize=12;" vertex="1" parent="1">
                    <mxGeometry x="350" y="120" width="120" height="20" as="geometry"/>
                </mxCell>
                
                <!-- Mathematical formula -->
                <mxCell id="12" value="確率密度関数:" style="text;html=1;strokeColor=none;fillColor=none;align=left;verticalAlign=middle;whiteSpace=wrap;rounded=0;fontSize=14;fontStyle=1;" vertex="1" parent="1">
                    <mxGeometry x="100" y="400" width="120" height="20" as="geometry"/>
                </mxCell>
                
                <mxCell id="13" value="f(x) = (2π)^(-k/2) |Σ|^(-1/2) exp(-½(x-μ)ᵀΣ⁻¹(x-μ))" style="text;html=1;strokeColor=none;fillColor=none;align=left;verticalAlign=middle;whiteSpace=wrap;rounded=0;fontSize=12;" vertex="1" parent="1">
                    <mxGeometry x="100" y="425" width="400" height="20" as="geometry"/>
                </mxCell>
                
                <!-- Parameters -->
                <mxCell id="14" value="パラメータ:" style="text;html=1;strokeColor=none;fillColor=none;align=left;verticalAlign=middle;whiteSpace=wrap;rounded=0;fontSize=14;fontStyle=1;" vertex="1" parent="1">
                    <mxGeometry x="100" y="460" width="80" height="20" as="geometry"/>
                </mxCell>
                
                <mxCell id="15" value="μ: 平均ベクトル (k次元)" style="text;html=1;strokeColor=none;fillColor=none;align=left;verticalAlign=middle;whiteSpace=wrap;rounded=0;fontSize=12;" vertex="1" parent="1">
                    <mxGeometry x="100" y="485" width="180" height="20" as="geometry"/>
                </mxCell>
                
                <mxCell id="16" value="Σ: 共分散行列 (k×k)" style="text;html=1;strokeColor=none;fillColor=none;align=left;verticalAlign=middle;whiteSpace=wrap;rounded=0;fontSize=12;" vertex="1" parent="1">
                    <mxGeometry x="100" y="510" width="150" height="20" as="geometry"/>
                </mxCell>
                
                <mxCell id="17" value="k: 次元数" style="text;html=1;strokeColor=none;fillColor=none;align=left;verticalAlign=middle;whiteSpace=wrap;rounded=0;fontSize=12;" vertex="1" parent="1">
                    <mxGeometry x="100" y="535" width="80" height="20" as="geometry"/>
                </mxCell>
                
                <!-- Properties -->
                <mxCell id="18" value="性質:" style="text;html=1;strokeColor=none;fillColor=none;align=left;verticalAlign=middle;whiteSpace=wrap;rounded=0;fontSize=14;fontStyle=1;" vertex="1" parent="1">
                    <mxGeometry x="350" y="460" width="50" height="20" as="geometry"/>
                </mxCell>
                
                <mxCell id="19" value="• 等高線は楕円形" style="text;html=1;strokeColor=none;fillColor=none;align=left;verticalAlign=middle;whiteSpace=wrap;rounded=0;fontSize=12;" vertex="1" parent="1">
                    <mxGeometry x="350" y="485" width="120" height="20" as="geometry"/>
                </mxCell>
                
                <mxCell id="20" value="• 周辺分布も正規分布" style="text;html=1;strokeColor=none;fillColor=none;align=left;verticalAlign=middle;whiteSpace=wrap;rounded=0;fontSize=12;" vertex="1" parent="1">
                    <mxGeometry x="350" y="510" width="150" height="20" as="geometry"/>
                </mxCell>
                
                <mxCell id="21" value="• 線形結合も正規分布" style="text;html=1;strokeColor=none;fillColor=none;align=left;verticalAlign=middle;whiteSpace=wrap;rounded=0;fontSize=12;" vertex="1" parent="1">
                    <mxGeometry x="350" y="535" width="150" height="20" as="geometry"/>
                </mxCell>
                
                <!-- Correlation illustration -->
                <mxCell id="22" value="相関の影響:" style="text;html=1;strokeColor=none;fillColor=none;align=center;verticalAlign=middle;whiteSpace=wrap;rounded=0;fontSize=12;fontStyle=1;" vertex="1" parent="1">
                    <mxGeometry x="520" y="120" width="80" height="20" as="geometry"/>
                </mxCell>
                
                <!-- Positive correlation -->
                <mxCell id="23" value="" style="ellipse;whiteSpace=wrap;html=1;fillColor=#e1d5e7;strokeColor=#9673a6;rotation=45;" vertex="1" parent="1">
                    <mxGeometry x="520" y="150" width="80" height="40" as="geometry"/>
                </mxCell>
                
                <mxCell id="24" value="正の相関" style="text;html=1;strokeColor=none;fillColor=none;align=center;verticalAlign=middle;whiteSpace=wrap;rounded=0;fontSize=10;" vertex="1" parent="1">
                    <mxGeometry x="525" y="200" width="70" height="15" as="geometry"/>
                </mxCell>
                
                <!-- Negative correlation -->
                <mxCell id="25" value="" style="ellipse;whiteSpace=wrap;html=1;fillColor=#fad7ac;strokeColor=#b46504;rotation=-45;" vertex="1" parent="1">
                    <mxGeometry x="520" y="230" width="80" height="40" as="geometry"/>
                </mxCell>
                
                <mxCell id="26" value="負の相関" style="text;html=1;strokeColor=none;fillColor=none;align=center;verticalAlign=middle;whiteSpace=wrap;rounded=0;fontSize=10;" vertex="1" parent="1">
                    <mxGeometry x="525" y="280" width="70" height="15" as="geometry"/>
                </mxCell>
                
                <!-- No correlation -->
                <mxCell id="27" value="" style="ellipse;whiteSpace=wrap;html=1;aspect=fixed;fillColor=#dae8fc;strokeColor=#6c8ebf;" vertex="1" parent="1">
                    <mxGeometry x="540" y="310" width="40" height="40" as="geometry"/>
                </mxCell>
                
                <mxCell id="28" value="無相関" style="text;html=1;strokeColor=none;fillColor=none;align=center;verticalAlign=middle;whiteSpace=wrap;rounded=0;fontSize=10;" vertex="1" parent="1">
                    <mxGeometry x="525" y="360" width="70" height="15" as="geometry"/>
                </mxCell>
            </root>
        </mxGraphModel>
    </diagram>
</mxfile>